<svg width="24" height="24" viewBox="0 0 24 24" fill="none" xmlns="http://www.w3.org/2000/svg">
  <!-- Edges -->
  <line x1="12" y1="8" x2="6" y2="5" stroke="#C5C5C5" stroke-width="1.2" stroke-linecap="round"/>
  <line x1="12" y1="8" x2="18" y2="5.5" stroke="#C5C5C5" stroke-width="1.2" stroke-linecap="round"/>
  <line x1="12" y1="8" x2="5" y2="13" stroke="#C5C5C5" stroke-width="1.2" stroke-linecap="round"/>
  <line x1="12" y1="8" x2="19" y2="13.5" stroke="#C5C5C5" stroke-width="1.2" stroke-linecap="round"/>
  <line x1="12" y1="8" x2="12" y2="16" stroke="#C5C5C5" stroke-width="1.2" stroke-linecap="round"/>
  <line x1="5" y1="13" x2="8" y2="19.5" stroke="#C5C5C5" stroke-width="1" stroke-linecap="round"/>
  <line x1="19" y1="13.5" x2="16" y2="19.5" stroke="#C5C5C5" stroke-width="1" stroke-linecap="round"/>
  <line x1="12" y1="16" x2="8" y2="19.5" stroke="#C5C5C5" stroke-width="1" stroke-linecap="round"/>
  <line x1="12" y1="16" x2="16" y2="19.5" stroke="#C5C5C5" stroke-width="1" stroke-linecap="round"/>
  <!-- Nodes -->
  <circle cx="12" cy="8" r="2.8" fill="#C5C5C5"/>
  <circle cx="6" cy="5" r="2" fill="#C5C5C5"/>
  <circle cx="18" cy="5.5" r="2" fill="#C5C5C5"/>
  <circle cx="5" cy="13" r="2" fill="#C5C5C5"/>
  <circle cx="19" cy="13.5" r="2" fill="#C5C5C5"/>
  <circle cx="12" cy="16" r="2" fill="#C5C5C5"/>
  <circle cx="8" cy="19.5" r="1.5" fill="#C5C5C5"/>
  <circle cx="16" cy="19.5" r="1.5" fill="#C5C5C5"/>
</svg>
