<svg width="256" height="256" viewBox="0 0 256 256" fill="none" xmlns="http://www.w3.org/2000/svg">
  <!-- Edges -->
  <line x1="128" y1="128" x2="128" y2="52" stroke="#999" stroke-width="2" stroke-linecap="round"/>
  <line x1="128" y1="128" x2="194" y2="90" stroke="#999" stroke-width="2" stroke-linecap="round"/>
  <line x1="128" y1="128" x2="194" y2="166" stroke="#999" stroke-width="2" stroke-linecap="round"/>
  <line x1="128" y1="128" x2="128" y2="204" stroke="#999" stroke-width="2" stroke-linecap="round"/>
  <line x1="128" y1="128" x2="62" y2="166" stroke="#999" stroke-width="2" stroke-linecap="round"/>
  <line x1="128" y1="128" x2="62" y2="90" stroke="#999" stroke-width="2" stroke-linecap="round"/>

  <!-- Ring edges -->
  <line x1="128" y1="52" x2="194" y2="90" stroke="#BBB" stroke-width="1.5" stroke-linecap="round"/>
  <line x1="194" y1="90" x2="194" y2="166" stroke="#BBB" stroke-width="1.5" stroke-linecap="round"/>
  <line x1="194" y1="166" x2="128" y2="204" stroke="#BBB" stroke-width="1.5" stroke-linecap="round"/>
  <line x1="128" y1="204" x2="62" y2="166" stroke="#BBB" stroke-width="1.5" stroke-linecap="round"/>
  <line x1="62" y1="166" x2="62" y2="90" stroke="#BBB" stroke-width="1.5" stroke-linecap="round"/>
  <line x1="62" y1="90" x2="128" y2="52" stroke="#BBB" stroke-width="1.5" stroke-linecap="round"/>

  <!-- Ring nodes -->
  <circle cx="128" cy="52" r="10" fill="#333"/>
  <circle cx="194" cy="90" r="10" fill="#333"/>
  <circle cx="194" cy="166" r="10" fill="#333"/>
  <circle cx="128" cy="204" r="10" fill="#333"/>
  <circle cx="62" cy="166" r="10" fill="#333"/>
  <circle cx="62" cy="90" r="10" fill="#333"/>

  <!-- Central node -->
  <circle cx="128" cy="128" r="16" fill="#111"/>
</svg>
